<?xml version="1.0" encoding="utf-8"?>
<!-- Generator: Adobe Illustrator 27.0.0, SVG Export Plug-In . SVG Version: 6.00 Build 0)  -->
<svg version="1.1" id="Layer_1" xmlns="http://www.w3.org/2000/svg" xmlns:xlink="http://www.w3.org/1999/xlink" x="0px" y="0px"
	 viewBox="0 0 145.65 158.62" style="enable-background:new 0 0 145.65 158.62;" xml:space="preserve">
<style type="text/css">
	.st0{fill:none;}
	.st1{fill:#FFFFFF;}
	.st2{font-family:'SmaragdLTStd';}
	.st3{font-size:100px;}
	.st4{fill:none;stroke:#FFFFFF;stroke-miterlimit:10;}
</style>
<rect x="5.62" y="10.86" class="st0" width="127.06" height="91.23"/>
<text transform="matrix(1 0 0 1 5.6236 82.8609)" class="st1 st2 st3">M</text>
<rect x="37.76" y="80.06" class="st0" width="202.55" height="133.12"/>
<text transform="matrix(1 0 0 1 37.7616 152.0623)" class="st1 st2 st3">H</text>
<path class="st4" d="M11.43,80.76c-1.53-2.3-12.6-19.55-5.81-38.08c4.84-13.2,15.9-19.31,21.87-22.61
	c15.1-8.35,38.17-12.19,59.19-0.89c20.56,11.05,38.42,36.18,31.9,51.5C106.93,98.04,24.3,77.85,17.29,101.2
	c-3.18,10.6,11.29,23.26,14.85,26.38c36.93,32.31,102.04,3.08,104.86,1.77"/>
<path class="st4" d="M85.77,152c-2.72-5.28-5.72-6.44-5.13-8.01c0.62-1.63,4.6-2.44,6.37-0.89c1,0.87,0.9,2.78,0.72,6.6
	c-0.08,1.64-0.19,3.7-0.78,3.8C86.54,153.56,86.08,152.61,85.77,152z"/>
<path class="st4" d="M27.46,103.68c-2.72-5.26-5.56-6.04-5.13-8.01c0.48-2.19,4.59-3.93,6.38-2.78c1.12,0.73,0.99,3.31,0.72,8.49
	c-0.15,2.84-0.4,3.73-0.78,3.8C28.24,105.24,27.77,104.29,27.46,103.68z"/>
<path class="st4" d="M125.78,51.72c-5.52-1.78-7.26-0.19-9.28-2.06c-0.41-0.38-1.02-1.57-2.24-3.95c-1.09-2.12-1.63-3.18-1.42-3.48
	c0.89-1.26,8.13,1.69,12.71,6.47c0.47,0.49,2.55,2.66,2.13,3.24C127.44,52.28,126.43,51.93,125.78,51.72z"/>
<path class="st4" d="M136.51,136.75c-4.72,2.68-12.17-0.25-12.14-1.96c0.01-0.95,2.32-1.89,4.17-2c2.57-0.16,3.24,1.32,6.31,1.44
	c2.49,0.09,4.01-0.81,4.27-0.32C139.38,134.41,138.01,135.91,136.51,136.75z"/>
<path class="st4" d="M25.32,135.33c-2.81-4.43-0.84-11.88,1.41-12.22c1.22-0.18,2.9,1.66,3.2,3.48c0.41,2.5-2.03,3.51-2.16,6.96
	c-0.09,2.39,1.01,3.96,0.52,4.25C27.79,138.09,26.24,136.78,25.32,135.33z"/>
<path class="st4" d="M11.48,50.51c0.67,5.2-4.29,11.11-6.46,10.47c-1.18-0.35-1.92-2.73-1.42-4.51c0.69-2.44,3.33-2.31,4.91-5.38
	c1.09-2.13,0.77-4.01,1.33-4.07C10.41,46.96,11.26,48.8,11.48,50.51z"/>
<path class="st4" d="M60.84,3.85c-3.67,4.49-2.84,6.69-5.32,7.88c-0.5,0.24-1.83,0.38-4.5,0.64c-2.37,0.24-3.56,0.35-3.75,0.05
	c-0.84-1.29,4.55-6.95,10.67-9.46c0.63-0.26,3.41-1.4,3.79-0.8C61.96,2.52,61.27,3.32,60.84,3.85z"/>
<path class="st4" d="M83.14,95.22c-0.19-0.54,1.54-1.16,3.77-3.33c3.24-3.15,2.84-5.03,5.07-6.81c3.25-2.59,8.9-2.45,9.78-0.73
	c1.02,1.98-4.34,7.38-10.26,9.82C87.73,95.74,83.42,96.02,83.14,95.22z"/>
</svg>
